# xmcd
#
# Track frame offsets:
#	150
#	13633
#	31080
#	44652
#	61946
#	77211
#	91239
#	102192
#	119803
#	134518
#	147230
#	160106
#	171930
#
# Disc length: 2334 seconds
#
# Revision: 0
# Processed by: cddbd v1.5.2PL0 Copyright (c) Steve Scherf et al.
# Submitted via: audiograbber 1.83.01
#
DISCID=af091c0d
DTITLE=Bob Wayne - 13 Truckin' Songs
DYEAR=1900
DGENRE=
TTITLE0=Mack
TTITLE1=Mornin' Time
TTITLE2=Devils Son
TTITLE3=Neath the Stone
TTITLE4=1985
TTITLE5=Left Behind
TTITLE6=Long Way Down
TTITLE7=Showdown
TTITLE8=Movin' Out
TTITLE9=Chatterbox
TTITLE10=The Laugh
TTITLE11=100K
TTITLE12=One for the Ladies
EXTD=
EXTT0=
EXTT1=
EXTT2=
EXTT3=
EXTT4=
EXTT5=
EXTT6=
EXTT7=
EXTT8=
EXTT9=
EXTT10=
EXTT11=
EXTT12=
PLAYORDER=
